<svg width="57" height="47" viewBox="0 0 57 47" fill="none" xmlns="http://www.w3.org/2000/svg">
<path d="M50.4603 46.6658C53.9097 42.4958 56.1006 37.4299 56.7767 32.0605C57.4528 26.6911 56.5862 21.2402 54.2781 16.3453C51.9701 11.4503 48.3161 7.31372 43.7435 4.41918C39.1708 1.52463 33.8686 -0.00816686 28.4568 3.27127e-05C23.045 0.00823229 17.7475 1.55709 13.1836 4.46548C8.61977 7.37386 4.97832 11.5215 2.68514 16.4235C0.39196 21.3254 -0.458161 26.7789 0.2342 32.1462C0.926561 37.5135 3.13278 42.5727 6.59485 46.7322L14.4347 40.2069C12.2117 37.5361 10.7951 34.2876 10.3505 30.8412C9.90594 27.3949 10.4518 23.8932 11.9243 20.7456C13.3967 17.5981 15.7349 14.9349 18.6653 13.0674C21.5958 11.1999 24.9974 10.2054 28.4723 10.2001C31.9472 10.1949 35.3518 11.1791 38.2879 13.0377C41.224 14.8963 43.5702 17.5524 45.0522 20.6954C46.5342 23.8385 47.0906 27.3385 46.6565 30.7862C46.2224 34.2339 44.8156 37.4867 42.6007 40.1643L50.4603 46.6658Z" fill="#111111"/>
<path d="M9.50494 39.1369C9.64029 39.3896 9.72993 39.6543 9.77387 39.931C9.81607 40.2044 9.80459 40.4398 9.73943 40.6373L9.38694 40.6447C9.44412 40.4557 9.45693 40.2383 9.42537 39.9925C9.39057 39.7485 9.31504 39.518 9.19878 39.3009C9.03567 38.9964 8.85827 38.7975 8.66656 38.7042C8.47161 38.6126 8.28504 38.6146 8.10685 38.71C7.97078 38.7829 7.88481 38.8831 7.84892 39.0108C7.81131 39.1351 7.80354 39.2685 7.82563 39.411C7.84447 39.5551 7.88523 39.748 7.94792 39.9896C8.0202 40.2803 8.06796 40.5173 8.0912 40.7008C8.11119 40.8861 8.08913 41.0667 8.02502 41.2428C7.95917 41.4157 7.82094 41.5585 7.61036 41.6713C7.43865 41.7632 7.25884 41.8012 7.07094 41.7851C6.87981 41.7707 6.6918 41.6921 6.50693 41.5493C6.32205 41.4065 6.155 41.1958 6.00577 40.9172C5.90166 40.7228 5.82769 40.5185 5.78387 40.3044C5.73506 40.0887 5.7212 39.8877 5.74228 39.7013L6.09407 39.6692C6.07646 39.8621 6.08836 40.0517 6.12976 40.2379C6.16792 40.426 6.22865 40.5977 6.31194 40.7532C6.47157 41.0513 6.65048 41.2452 6.84867 41.335C7.04188 41.4233 7.2292 41.4189 7.41063 41.3217C7.54671 41.2489 7.63517 41.1494 7.67603 41.0232C7.71191 40.8956 7.71956 40.7581 7.69898 40.6107C7.67343 40.4618 7.63017 40.2682 7.56922 40.0298C7.49717 39.7474 7.45115 39.5136 7.43115 39.3283C7.40618 39.1416 7.42662 38.9618 7.49247 38.7889C7.55508 38.6178 7.69006 38.4767 7.89741 38.3657C8.06912 38.2737 8.25142 38.2365 8.44429 38.2541C8.63219 38.2702 8.81944 38.3513 9.00605 38.4973C9.18942 38.6451 9.35572 38.8583 9.50494 39.1369Z" fill="white"/>
<path d="M6.9847 30.9014C7.02128 31.2819 6.97021 31.6339 6.83148 31.9574C6.69239 32.2772 6.48313 32.5391 6.20369 32.7432C5.92024 32.944 5.59377 33.0622 5.22428 33.0977C4.85478 33.1333 4.51361 33.0793 4.20075 32.9359C3.88387 32.7891 3.62652 32.5702 3.42868 32.2791C3.23085 31.9879 3.11364 31.6521 3.07705 31.2717C3.04961 30.9863 3.07184 30.7183 3.14374 30.4677C3.21563 30.2172 3.33495 29.9989 3.50168 29.813L3.7844 30.0462C3.5096 30.3753 3.39419 30.7686 3.43817 31.2259C3.46737 31.5295 3.56344 31.799 3.72638 32.0344C3.88932 32.2698 4.09838 32.4473 4.35355 32.5667C4.60837 32.6825 4.88577 32.726 5.18575 32.6971C5.48574 32.6683 5.74977 32.5728 5.97786 32.4105C6.20559 32.2446 6.377 32.0306 6.49209 31.7685C6.60719 31.5063 6.65014 31.2234 6.62094 30.9198C6.57661 30.4588 6.38655 30.095 6.05075 29.8282L6.28386 29.5455C6.48296 29.6962 6.64368 29.8893 6.76603 30.1249C6.88437 30.3573 6.95725 30.6161 6.9847 30.9014Z" fill="white"/>
<path d="M8.25448 21.1353L6.79924 21.5812C6.77841 21.6788 6.75119 21.7782 6.71759 21.8794L6.39078 22.8629L7.5522 23.2488L7.42356 23.636L3.76144 22.4191L4.21688 21.0485C4.37217 20.5811 4.60546 20.252 4.91675 20.0611C5.22804 19.8702 5.579 19.8396 5.96962 19.9694C6.25562 20.0645 6.47368 20.2182 6.62381 20.4308C6.77161 20.6387 6.84449 20.8914 6.84245 21.1889L8.39528 20.7115L8.25448 21.1353ZM6.38452 21.7803C6.50504 21.4176 6.51695 21.1137 6.42026 20.8685C6.32356 20.6234 6.13047 20.4528 5.84099 20.3566C5.54453 20.2581 5.28596 20.2786 5.06527 20.4183C4.8411 20.5568 4.66875 20.8075 4.54823 21.1702L4.2249 22.1433L6.06119 22.7534L6.38452 21.7803Z" fill="white"/>
<path d="M12.4807 14.3698C12.2178 14.6473 11.9176 14.8413 11.5801 14.9518C11.2424 15.0572 10.9048 15.0715 10.5673 14.9949C10.2324 14.9156 9.93022 14.7483 9.66073 14.493C9.39123 14.2378 9.20782 13.9451 9.11048 13.6149C9.01566 13.2821 9.01304 12.9455 9.1026 12.6051C9.19202 12.2596 9.36816 11.948 9.63101 11.6705C9.89386 11.393 10.1915 11.2017 10.5241 11.0965C10.8591 10.9886 11.1967 10.9742 11.5368 11.0534C11.8742 11.1301 12.1777 11.296 12.4472 11.5513C12.7167 11.8065 12.9002 12.1018 12.9976 12.4372C13.0925 12.77 13.0951 13.1066 13.0055 13.4469C12.9185 13.7847 12.7435 14.0923 12.4807 14.3698ZM12.2165 14.1196C12.4263 13.8981 12.5665 13.6512 12.6371 13.3789C12.7051 13.1041 12.699 12.8326 12.6189 12.5644C12.5362 12.2937 12.3854 12.0547 12.1666 11.8475C11.9478 11.6402 11.7024 11.5039 11.4302 11.4385C11.1554 11.3705 10.884 11.3792 10.6159 11.4644C10.3452 11.5472 10.1049 11.6993 9.89516 11.9207C9.68539 12.1422 9.54527 12.3917 9.4748 12.6691C9.40419 12.9414 9.40898 13.2143 9.48919 13.4877C9.56925 13.7559 9.71868 13.9936 9.93748 14.2008C10.1563 14.4081 10.4031 14.5457 10.6779 14.6136C10.9526 14.6764 11.2253 14.6664 11.496 14.5837C11.7666 14.4957 12.0068 14.341 12.2165 14.1196Z" fill="white"/>
<path d="M17.4925 5.8671L17.8689 5.70981L19.2208 8.94486L21.2147 8.11162L21.3507 8.43716L18.9804 9.4277L17.4925 5.8671Z" fill="white"/>
<path d="M26.6677 3.46678L27.0756 3.45828L27.1486 6.96369L29.3092 6.91867L29.3165 7.27142L26.7481 7.32493L26.6677 3.46678Z" fill="white"/>
<path d="M42.8079 7.84563L44.0426 8.81719C44.3632 9.06945 44.5951 9.35716 44.7384 9.68031C44.8839 10.0006 44.9336 10.3296 44.8876 10.6675C44.8438 11.0025 44.706 11.3173 44.4742 11.6119C44.2423 11.9065 43.9677 12.116 43.6501 12.2402C43.3348 12.3616 43.0033 12.3907 42.6555 12.3274C42.31 12.2614 41.9769 12.1022 41.6563 11.8499L40.4216 10.8784L42.8079 7.84563ZM41.8572 11.559C42.1229 11.7681 42.3963 11.899 42.6774 11.9519C42.9608 12.0018 43.2301 11.9776 43.4853 11.8791C43.7428 11.7777 43.967 11.6057 44.1579 11.3631C44.3488 11.1204 44.4621 10.8635 44.4978 10.5923C44.5357 10.3182 44.496 10.0508 44.3785 9.78998C44.2633 9.5263 44.0728 9.28992 43.8071 9.08083L42.9103 8.37517L40.9604 10.8533L41.8572 11.559Z" fill="white"/>
<path d="M47.4295 18.773C47.2575 18.4317 47.1768 18.0835 47.1872 17.7284C47.2026 17.375 47.3035 17.0526 47.49 16.7611C47.6782 16.4729 47.938 16.2453 48.2695 16.0783C48.6011 15.9113 48.9386 15.838 49.2822 15.8583C49.6274 15.8819 49.945 15.9936 50.2348 16.1932C50.5296 16.3945 50.763 16.6658 50.935 17.0072C51.1069 17.3486 51.186 17.6935 51.1723 18.042C51.1602 18.3938 51.0592 18.7162 50.8694 19.0093C50.6829 19.3008 50.4239 19.53 50.0924 19.697C49.7609 19.864 49.4209 19.9365 49.0724 19.9146C48.7272 19.8909 48.4096 19.7793 48.1197 19.5796C47.8315 19.3833 47.6014 19.1144 47.4295 18.773ZM47.7544 18.6094C47.8917 18.8818 48.0764 19.0974 48.3086 19.2561C48.5441 19.4132 48.8016 19.4995 49.0811 19.5151C49.3638 19.5291 49.6397 19.4683 49.9089 19.3327C50.178 19.1971 50.3895 19.0124 50.5433 18.7786C50.7004 18.543 50.7843 18.2847 50.795 18.0037C50.8089 17.7209 50.7473 17.4433 50.61 17.1709C50.4728 16.8985 50.2856 16.6821 50.0484 16.5217C49.8162 16.363 49.5579 16.275 49.2735 16.2577C48.994 16.2421 48.7197 16.3021 48.4506 16.4377C48.1814 16.5733 47.9683 16.7588 47.8112 16.9943C47.6591 17.2315 47.576 17.4914 47.5621 17.7742C47.5531 18.0585 47.6172 18.3369 47.7544 18.6094Z" fill="white"/>
<path d="M53.7848 31.8774L49.9424 30.528L49.9478 30.0981L53.2529 29.0093L49.9762 27.8325L49.9815 27.408L53.8565 26.1555L53.8513 26.5744L50.5188 27.6463L53.8229 28.84L53.8181 29.2204L50.4689 30.3141L53.7897 31.486L53.7848 31.8774Z" fill="white"/>
<path d="M50.3483 41.7644L46.9092 40.0137L47.0618 39.714L50.9778 38.9238L48.1872 37.5032L48.3723 37.1397L51.8113 38.8903L51.6588 39.19L47.7403 39.9852L50.5308 41.4057L50.3483 41.7644Z" fill="white"/>
</svg>
